<?xml version="1.0" standalone="no"?>
<!DOCTYPE svg PUBLIC "-//W3C//DTD SVG 20010904//EN"
 "http://www.w3.org/TR/2001/REC-SVG-20010904/DTD/svg10.dtd">
<svg version="1.0" xmlns="http://www.w3.org/2000/svg"
 width="1000.000000pt" height="1000.000000pt" viewBox="0 0 1000.000000 1000.000000"
 preserveAspectRatio="xMidYMid meet">
<metadata>
Created by potrace 1.14, written by Peter Selinger 2001-2017
</metadata>
<g transform="translate(0.000000,1000.000000) scale(0.100000,-0.100000)"
fill="#000000" stroke="none">
<path d="M2481 9426 c-6 -7 -21 -11 -34 -9 -17 3 -30 -6 -55 -38 -17 -24 -30
-50 -28 -58 16 -55 18 -91 4 -91 -11 0 -17 17 -22 62 -6 64 -26 98 -57 98 -12
0 -16 5 -13 14 3 8 1 17 -5 21 -6 3 -14 -1 -17 -10 -4 -9 -13 -14 -20 -11 -8
3 -14 -1 -14 -10 0 -20 -27 -29 -45 -14 -18 15 -34 5 -18 -11 8 -8 8 -20 1
-42 -11 -31 -1 -62 44 -129 18 -25 18 -28 0 -74 -19 -54 -23 -56 -267 -185
-149 -78 -266 -162 -302 -215 -14 -19 -38 -64 -55 -100 -32 -68 -92 -124 -134
-124 -29 0 -95 -89 -87 -118 3 -12 -4 -32 -16 -49 -12 -16 -24 -44 -27 -63 -5
-31 -1 -41 36 -83 l42 -47 132 0 c123 0 134 2 152 21 64 72 172 95 478 103
195 4 201 4 246 -19 64 -32 318 -303 540 -575 96 -118 282 -331 414 -474 357
-389 416 -453 606 -666 95 -107 241 -265 324 -350 83 -85 169 -181 191 -213
38 -57 39 -60 46 -175 16 -267 76 -729 104 -803 8 -20 24 -79 36 -130 12 -52
28 -111 35 -131 11 -33 11 -38 -2 -38 -8 0 -24 5 -35 11 -11 6 -46 17 -77 25
-31 8 -64 21 -72 29 -9 8 -30 18 -48 21 -17 3 -33 12 -36 19 -3 8 -25 17 -50
20 -24 4 -47 13 -50 20 -2 7 -20 16 -38 20 -124 25 -167 38 -165 47 1 5 -31
18 -72 29 -41 10 -81 25 -90 32 -19 17 -39 24 -111 43 -30 8 -61 21 -70 28 -8
7 -28 16 -44 20 -47 11 -168 72 -199 99 -16 14 -46 28 -68 32 -21 4 -42 12
-46 19 -5 7 -44 27 -88 44 -97 37 -185 80 -185 91 0 4 -18 13 -39 20 -21 6
-42 18 -45 26 -3 8 -16 15 -29 15 -13 0 -34 9 -47 20 -13 11 -36 20 -51 20
-18 0 -32 7 -39 19 -14 26 -13 28 10 34 16 4 20 14 20 47 0 34 -6 48 -33 75
-39 39 -72 50 -122 41 -36 -7 -39 -13 -50 -84 -4 -24 -14 -46 -22 -49 -19 -8
-123 16 -123 28 0 5 -8 9 -17 9 -13 1 -7 10 21 35 35 31 38 37 32 70 -6 31
-11 35 -36 35 -17 0 -30 4 -30 10 0 16 -92 -1 -122 -23 -22 -16 -25 -25 -21
-53 4 -27 2 -34 -11 -34 -11 0 -16 9 -16 29 0 34 -16 53 -58 70 -26 11 -36 10
-65 -4 -26 -12 -40 -14 -55 -6 -17 9 -19 7 -17 -25 2 -25 11 -44 33 -64 30
-27 31 -29 17 -58 -14 -27 -29 -33 -213 -87 -278 -82 -378 -133 -429 -218 -10
-17 -86 -47 -120 -47 -27 0 -83 -44 -83 -65 0 -7 -9 -20 -20 -30 -30 -28 -25
-60 13 -82 26 -16 59 -21 156 -26 120 -5 126 -4 198 24 72 29 80 30 345 41
203 9 285 9 326 0 69 -15 286 -140 522 -304 96 -66 301 -198 455 -293 154 -95
402 -249 552 -343 149 -94 327 -202 395 -241 160 -90 218 -140 218 -187 0 -39
39 -244 71 -367 23 -95 97 -244 180 -369 59 -87 78 -140 79 -212 0 -22 15 -85
34 -140 53 -159 52 -155 39 -231 -7 -38 -19 -150 -28 -248 -8 -98 -17 -188
-20 -200 -3 -12 -9 -85 -15 -162 -6 -77 -19 -176 -30 -220 -10 -44 -20 -109
-20 -145 -1 -115 -22 -181 -87 -283 -33 -50 -79 -127 -102 -170 -22 -43 -55
-95 -72 -115 -29 -36 -65 -116 -76 -176 l-6 -28 42 7 c32 5 47 3 59 -8 34 -31
70 -37 143 -27 39 6 83 17 99 25 32 17 50 59 40 96 -6 19 -3 29 11 37 20 13
26 57 9 67 -5 3 -10 9 -10 13 0 11 60 47 110 66 25 9 56 26 69 37 23 19 23 22
17 122 -5 64 -3 120 4 152 7 28 17 93 24 145 12 96 19 121 62 240 13 36 33
100 44 143 12 42 37 111 56 151 l36 75 74 -52 c133 -93 430 -316 445 -333 8
-10 64 -50 124 -91 286 -189 334 -234 384 -354 18 -42 41 -85 51 -94 16 -15
20 -31 20 -92 l0 -73 38 0 c21 0 76 13 122 29 84 30 132 64 159 114 12 23 12
29 -5 54 -11 16 -19 48 -20 74 -1 38 -8 55 -38 93 -21 25 -53 55 -71 66 -44
27 -74 79 -97 170 -14 57 -27 83 -53 110 -18 19 -57 71 -86 115 -28 44 -75
112 -105 151 -29 40 -65 96 -80 125 -29 58 -75 126 -138 203 -47 57 -88 135
-121 229 -28 81 -88 187 -181 319 -14 20 -27 48 -28 62 -5 46 12 50 147 37 67
-6 148 -11 180 -11 37 0 71 -7 95 -19 20 -10 51 -22 69 -25 18 -4 50 -16 72
-27 22 -10 49 -19 59 -19 10 0 39 -6 63 -13 47 -15 158 -10 339 13 180 23 190
23 190 10 0 -7 15 -45 34 -84 30 -61 56 -93 189 -223 145 -143 203 -186 277
-208 89 -26 106 -49 89 -124 -8 -37 -7 -51 7 -77 16 -30 16 -38 1 -135 -9 -57
-19 -169 -23 -249 -7 -194 -29 -364 -60 -480 -31 -115 -49 -153 -89 -189 -45
-41 -86 -123 -83 -166 3 -55 21 -63 146 -74 168 -15 274 10 288 67 4 15 16 33
26 40 24 17 10 36 -38 52 -19 6 -34 15 -34 19 0 13 33 38 59 46 13 4 39 23 56
43 32 34 32 36 18 69 -9 22 -16 87 -19 180 -6 153 4 224 36 265 18 24 24 47
41 173 6 44 19 98 29 120 9 22 30 70 45 107 15 37 38 77 51 89 l23 22 10 -24
c15 -36 33 -217 36 -364 4 -154 47 -353 90 -415 14 -20 25 -40 25 -44 0 -24
55 -112 93 -149 25 -23 50 -59 56 -79 7 -20 18 -42 26 -48 16 -13 79 -4 93 14
23 28 102 186 102 203 0 24 -19 43 -41 43 -16 0 -16 4 -3 47 28 94 12 139 -48
135 -35 -3 -83 41 -113 104 -16 34 -16 44 -5 84 24 85 24 105 -5 148 l-27 40
17 89 c9 48 25 107 35 130 10 23 24 68 31 100 7 32 21 75 31 95 17 36 17 39 1
58 -10 11 -24 20 -31 20 -8 0 -36 8 -63 17 l-49 18 0 77 0 78 60 -30 c62 -31
135 -59 206 -79 47 -12 67 -43 79 -119 5 -31 11 -42 20 -38 22 8 75 -23 75
-45 0 -18 24 -27 34 -11 2 4 6 49 8 100 3 89 2 94 -22 112 l-25 20 28 0 c41 0
33 15 -19 35 -34 13 -60 16 -104 11 -75 -9 -156 20 -225 81 -102 90 -108 113
-75 268 11 50 29 151 39 225 11 74 26 154 35 178 18 51 9 76 -39 97 -50 22
-142 101 -183 158 -51 68 -117 201 -127 252 -4 22 -15 65 -25 95 -45 139 -58
313 -30 394 10 29 21 86 24 127 9 96 27 169 41 169 7 0 13 -12 13 -27 3 -83
25 -301 39 -383 18 -111 66 -264 117 -376 31 -66 47 -87 96 -128 86 -69 129
-97 177 -113 23 -8 46 -20 51 -26 17 -21 31 -80 42 -172 6 -49 13 -91 15 -94
3 -2 11 2 20 9 13 11 15 9 15 -14 0 -23 3 -26 20 -21 18 6 20 2 20 -39 0 -49
12 -65 36 -45 12 10 14 43 13 183 -1 151 -3 173 -20 195 -26 33 -24 51 6 51
37 0 31 15 -20 50 -43 30 -48 31 -117 24 l-73 -6 -52 42 c-29 23 -53 45 -53
49 0 4 -21 38 -46 76 -79 117 -122 261 -129 430 -2 50 -9 153 -15 230 -6 77
-13 268 -15 425 l-4 285 -34 120 c-39 137 -71 207 -116 249 -17 17 -31 35 -31
40 0 19 -52 110 -88 154 -22 26 -47 45 -64 49 -21 4 -40 22 -68 62 -21 31 -58
75 -82 98 -81 77 -294 188 -556 290 -79 30 -183 74 -231 96 -90 44 -377 236
-423 284 -33 34 -158 233 -158 251 0 7 -8 25 -18 40 -10 15 -32 47 -49 72 -17
25 -44 75 -61 112 -16 36 -39 71 -50 77 -11 6 -33 34 -50 63 -16 29 -39 62
-51 72 -11 11 -21 25 -21 31 0 19 -25 36 -36 25 -12 -12 -105 52 -118 80 -10
23 -19 25 -45 8 -14 -8 -22 -8 -32 1 -8 6 -23 18 -34 26 -19 14 -19 16 -2 29
9 7 17 16 17 18 0 3 -34 9 -75 13 -75 7 -75 7 -75 37 0 24 -3 28 -19 23 -15
-5 -21 0 -26 25 -8 35 -24 38 -50 10 -26 -29 -45 -25 -52 10 -3 17 -8 29 -12
28 -61 -32 -64 -33 -74 -16 -9 14 -15 14 -50 2 -30 -11 -43 -11 -54 -3 -10 9
-19 9 -38 -1 -27 -14 -167 -9 -188 8 -7 5 -37 12 -67 15 -38 5 -59 13 -70 26
-9 12 -33 23 -60 27 -24 4 -68 20 -98 36 -30 15 -62 28 -72 28 -10 0 -31 11
-47 24 -15 13 -39 27 -53 31 -49 15 -99 45 -104 63 -3 10 -26 28 -51 40 -28
14 -43 26 -39 35 3 9 -11 18 -43 28 -39 13 -47 19 -45 36 2 17 -7 25 -53 42
-31 12 -60 21 -66 21 -25 0 -87 41 -93 62 -4 17 -25 31 -78 54 -40 17 -72 35
-71 40 2 13 -28 44 -43 44 -7 0 -18 8 -23 18 -5 9 -30 23 -56 31 -31 9 -50 22
-57 37 -6 12 -25 28 -42 34 -60 23 -79 35 -89 57 -6 13 -14 23 -20 23 -14 0
-88 61 -83 68 7 12 -48 68 -91 92 -24 13 -43 29 -43 36 0 7 -42 42 -92 77
-111 78 -184 144 -180 163 2 8 -14 20 -38 30 -24 10 -39 22 -36 29 7 18 -6 31
-47 48 -20 9 -36 22 -35 29 2 7 -17 19 -43 28 -28 9 -44 20 -42 28 3 6 0 12
-5 12 -5 0 -12 11 -14 25 -4 17 1 29 15 38 33 22 36 117 4 187 -45 102 -100
134 -154 92 -19 -14 -24 -30 -29 -97 -8 -114 -11 -125 -36 -125 -45 0 -100 24
-109 47 -5 13 -13 23 -19 23 -6 0 3 27 21 60 25 47 32 71 31 114 0 65 -5 76
-31 69 -13 -3 -23 2 -30 16 -14 24 -24 26 -40 7z m4419 -5348 c12 -51 31 -119
41 -152 11 -32 18 -60 16 -63 -20 -19 -456 152 -502 197 l-30 30 55 0 c30 0
77 7 104 15 26 8 87 21 134 30 47 8 90 19 96 25 5 5 22 10 37 10 25 0 28 -4
49 -92z m1119 -1493 c1 -119 -13 -118 -31 3 -9 65 -9 88 2 110 12 25 13 26 21
7 4 -11 8 -65 8 -120z m-2305 -376 c42 -55 76 -104 76 -109 0 -5 28 -42 63
-81 81 -94 155 -184 191 -234 17 -22 54 -67 83 -101 48 -55 145 -214 137 -223
-2 -2 -31 22 -64 53 -34 31 -87 74 -118 95 -56 38 -88 73 -147 159 -16 24 -38
50 -49 57 -10 8 -66 57 -122 110 -121 114 -144 152 -144 247 0 59 8 128 15
128 2 0 37 -45 79 -101z"/>
</g>
</svg>
